<svg width="220" height="220" viewBox="0 0 220 220" fill="none" xmlns="http://www.w3.org/2000/svg">
<circle cx="110" cy="110" r="101.5" stroke="white" stroke-width="17"/>
<path d="M100.5 179C100.5 184.247 104.753 188.5 110 188.5C115.247 188.5 119.5 184.247 119.5 179L110 179L100.5 179ZM116.718 34.2825C113.008 30.5725 106.992 30.5725 103.282 34.2825L42.8249 94.7401C39.1149 98.4501 39.1149 104.465 42.8249 108.175C46.5348 111.885 52.5499 111.885 56.2599 108.175L110 54.435L163.74 108.175C167.45 111.885 173.465 111.885 177.175 108.175C180.885 104.465 180.885 98.4501 177.175 94.7401L116.718 34.2825ZM110 179L119.5 179L119.5 41L110 41L100.5 41L100.5 179L110 179Z" fill="white"/>
</svg>
